<?xml version="1.0" encoding="UTF-8"?>
<svg id="Camada_2" data-name="Camada 2" xmlns="http://www.w3.org/2000/svg" viewBox="0 0 45.68 45.68">
  <defs>
    <style>
      .cls-1 {
        fill: #5700ef;
      }
    </style>
  </defs>
  <g id="Camada_1-2" data-name="Camada 1">
    <rect width="45.68" height="45.68" rx="5.92" ry="5.92"/>
    <g>
      <path class="cls-1" d="M34.42,26.34v1.94c0,2.34-1.82,4.31-4.19,4.67-.3.06-.58.09-.88.09h-12.62v-4.58h11.68c.94,0,1.43-.64,1.43-1.43v-.7c0-.79-.52-1.43-1.46-1.43h-3.31l-.3-.49-1-1.58,1.34-2.09h2.88c.94,0,1.46-.64,1.46-1.43v-.7c0-.79-.55-1.43-1.49-1.43h-6.77l2.73-4.55.03-.03h5.25c.33.03.67.09,1,.15,2.15.52,3.79,2.4,3.79,4.61v1.94c0,1.94-1.49,3.52-2.46,3.52,1.3,0,2.88,1.37,2.88,3.49Z"/>
      <polygon class="cls-1" points="22.89 12.63 16.73 12.63 16.73 17.21 20.12 17.21 22.89 12.63"/>
      <rect class="cls-1" x="11.26" y="12.63" width="4.55" height="20.42"/>
      <polygon class="cls-1" points="25.71 27.56 20.64 27.56 19.06 24.92 17.82 22.82 19.06 20.76 20.64 18.12 21.19 17.21 23.92 12.66 23.95 12.63 24.49 11.72 26.68 8.08 32.11 8.08 29.74 11.78 29.2 12.63 29.2 12.66 26.28 17.21 25.71 18.12 24.61 19.85 24.01 20.76 22.67 22.85 24.01 24.92 24.58 25.83 25.71 27.56"/>
      <polygon class="cls-1" points="29.74 33.93 32.11 37.6 26.68 37.6 24.49 33.96 23.95 33.05 21.19 28.47 26.28 28.47 29.2 33.05 29.74 33.93"/>
    </g>
  </g>
</svg>