<?xml version="1.0" encoding="UTF-8"?>
<svg id="Camada_2" data-name="Camada 2" xmlns="http://www.w3.org/2000/svg" viewBox="0 0 123.13 20.86">
  <g id="Camada_1-2" data-name="Camada 1">
    <g>
      <path d="M18.55,10.98v1.56c0,2.1-1.81,3.8-4.04,3.8H0V0h14.18C16.41,0,18.22,1.71,18.22,3.8v1.57c0,1.56-1.2,2.8-1.97,2.8,1.06,0,2.31,1.11,2.31,2.8ZM3.65,3.66v2.85h9.76c.75,0,1.16-.52,1.16-1.14v-.57c0-.63-.42-1.15-1.18-1.15H3.65ZM14.9,10.97c0-.63-.42-1.15-1.18-1.15H3.65v2.86h10.09c.75,0,1.16-.52,1.16-1.14v-.58Z"/>
      <path d="M32.65,4.51v3.04h-8.67c-.35,0-.64.29-.64.64v8.15h-3.04V4.51h2.51l.28.91c.43-.5,1.1-.91,1.8-.91h7.76Z"/>
      <path d="M49.43,8.2v4.46c0,2.03-1.65,3.68-3.68,3.68h-8.6c-2.03,0-3.68-1.65-3.68-3.68v-4.46c0-2.03,1.65-3.68,3.68-3.68h8.6c2.03,0,3.68,1.65,3.68,3.68ZM46.39,8.2c0-.35-.29-.64-.64-.64h-8.6c-.36,0-.64.29-.64.64v4.46c0,.35.29.64.64.64h8.6c.36,0,.64-.29.64-.64v-4.46Z"/>
      <path d="M66.89,8.2v4.46c0,2.03-1.65,3.68-3.68,3.68h-8.6c-2.03,0-3.68-1.65-3.68-3.68v-4.46c0-2.03,1.65-3.68,3.68-3.68h8.6c2.03,0,3.68,1.65,3.68,3.68ZM63.85,8.2c0-.35-.29-.64-.64-.64h-8.6c-.35,0-.64.29-.64.64v4.46c0,.35.29.64.64.64h8.6c.35,0,.64-.29.64-.64v-4.46Z"/>
      <path d="M86.52,4.51l-1.5,10.13c-.17.97-1.04,1.7-2.01,1.7h-3.26c-.97,0-1.83-.72-2-1.68l-.51-5.71-.51,5.7c-.17.97-1.04,1.7-2,1.7h-3.26c-.97,0-1.83-.72-2-1.68l-1.5-10.14h3.08l1.23,8.56c.02.13.13.23.26.23h1.48c.13,0,.24-.09.26-.22l1.45-8.15c.04-.24.25-.41.49-.41h2.05c.24,0,.45.17.49.41l1.45,8.15c.02.13.13.22.26.22h1.48c.13,0,.24-.1.26-.23l1.23-8.56h3.08Z"/>
      <path d="M103.83,16.34h-3.49l-2.68-4.36h-6.68v4.36h-3.11V0h3.11v8.87h6.68l2.68-4.36h3.5l-3.74,5.91,3.74,5.92Z"/>
      <path d="M119.92,4.52l-3.27,14.64c-.22.97-1.12,1.7-2.1,1.7h-8.16v-3.11h7.43l.31-1.4h-6.01c-.88,0-1.65-.61-1.84-1.48l-2.32-10.35h3.15l2.01,8.97h5.64l2.01-8.97h3.15Z"/>
      <rect x="120.04" y="13.25" width="3.09" height="3.09"/>
    </g>
  </g>
</svg>