<?xml version="1.0" encoding="UTF-8"?>
<svg id="Camada_2" xmlns="http://www.w3.org/2000/svg" version="1.1" viewBox="0 0 123.1 20.9">
  <!-- Generator: Adobe Illustrator 30.3.0, SVG Export Plug-In . SVG Version: 2.1.3 Build 182)  -->
  <defs>
    <style>
      .st0 {
        fill: #fff;
      }
    </style>
  </defs>
  <g id="Camada_1-2">
    <g>
      <path class="st0" d="M18.5,11v1.6c0,2.1-1.8,3.8-4,3.8H0V0h14.2C16.4,0,18.2,1.7,18.2,3.8v1.6c0,1.6-1.2,2.8-2,2.8,1.1,0,2.3,1.1,2.3,2.8h0ZM3.7,3.7v2.9h9.8c.8,0,1.2-.5,1.2-1.1v-.6c0-.6-.4-1.2-1.2-1.2H3.7ZM14.9,11c0-.6-.4-1.1-1.2-1.1H3.7v2.9h10.1c.8,0,1.2-.5,1.2-1.1v-.6h0Z"/>
      <path class="st0" d="M32.7,4.5v3h-8.7c-.4,0-.6.3-.6.6v8.1h-3V4.5h2.5l.3.9c.4-.5,1.1-.9,1.8-.9h7.8Z"/>
      <path class="st0" d="M49.4,8.2v4.5c0,2-1.7,3.7-3.7,3.7h-8.6c-2,0-3.7-1.6-3.7-3.7v-4.5c0-2,1.7-3.7,3.7-3.7h8.6c2,0,3.7,1.7,3.7,3.7ZM46.4,8.2c0-.3-.3-.6-.6-.6h-8.6c-.4,0-.6.3-.6.6v4.5c0,.4.3.6.6.6h8.6c.4,0,.6-.3.6-.6v-4.5Z"/>
      <path class="st0" d="M66.9,8.2v4.5c0,2-1.7,3.7-3.7,3.7h-8.6c-2,0-3.7-1.6-3.7-3.7v-4.5c0-2,1.7-3.7,3.7-3.7h8.6c2,0,3.7,1.7,3.7,3.7ZM63.8,8.2c0-.3-.3-.6-.6-.6h-8.6c-.3,0-.6.3-.6.6v4.5c0,.4.3.6.6.6h8.6c.3,0,.6-.3.6-.6v-4.5Z"/>
      <path class="st0" d="M86.5,4.5l-1.5,10.1c-.2,1-1,1.7-2,1.7h-3.3c-1,0-1.8-.7-2-1.7l-.5-5.7-.5,5.7c-.2,1-1,1.7-2,1.7h-3.3c-1,0-1.8-.7-2-1.7l-1.5-10.1h3.1l1.2,8.6c0,.1.1.2.3.2h1.5c.1,0,.2,0,.3-.2l1.4-8.1c0-.2.2-.4.5-.4h2.1c.2,0,.4.2.5.4l1.4,8.1c0,.1.1.2.3.2h1.5c.1,0,.2-.1.3-.2l1.2-8.6h3.1,0Z"/>
      <path class="st0" d="M103.8,16.3h-3.5l-2.7-4.4h-6.7v4.4h-3.1V0h3.1v8.9h6.7l2.7-4.4h3.5l-3.7,5.9,3.7,5.9h0Z"/>
      <path class="st0" d="M119.9,4.5l-3.3,14.6c-.2,1-1.1,1.7-2.1,1.7h-8.2v-3.1h7.4l.3-1.4h-6c-.9,0-1.7-.6-1.8-1.5l-2.3-10.4h3.2l2,9h5.6l2-9s3.2,0,3.1,0Z"/>
      <rect class="st0" x="120" y="13.3" width="3.1" height="3.1"/>
    </g>
  </g>
</svg>