<svg xmlns="http://www.w3.org/2000/svg" id="Camada_2" data-name="Camada 2" viewBox="0 0 577.94 364.12"><defs><style>      .cls-1 {        fill: #fff;      }    </style></defs><g id="Layer_1" data-name="Layer 1"><g><path class="cls-1" d="M288.98,11.01C136.29,11.01,12.04,87.76,12.04,182.08s124.25,171.02,276.94,171.02,276.95-76.74,276.95-171.02S441.73,11.01,288.98,11.01ZM288.98,348.6c-150.2,0-272.44-74.73-272.44-166.52S138.78,15.52,288.98,15.52s272.44,74.73,272.44,166.56-122.18,166.52-272.44,166.52ZM288.98,11.01C136.29,11.01,12.04,87.76,12.04,182.08s124.25,171.02,276.94,171.02,276.95-76.74,276.95-171.02S441.73,11.01,288.98,11.01ZM288.98,348.6c-150.2,0-272.44-74.73-272.44-166.52S138.78,15.52,288.98,15.52s272.44,74.73,272.44,166.56-122.18,166.52-272.44,166.52ZM402.14,13.65C367.24,4.85,329.02,0,288.98,0s-78.44,4.88-113.42,13.73C72.44,41.7,0,106.62,0,182.08s71.64,139.65,173.87,167.89c35.43,9.11,74.33,14.15,115.11,14.15s79.51-5.01,114.88-14.09c102.35-28.2,174.08-92.89,174.08-167.95S505.41,41.59,402.14,13.65ZM288.98,357.6C133.54,357.6,7.54,279.01,7.54,182.08S133.54,6.51,288.98,6.51s281.5,78.6,281.5,175.57-126.05,175.52-281.5,175.52ZM288.98,11.01C136.29,11.01,12.04,87.76,12.04,182.08s124.25,171.02,276.94,171.02,276.95-76.74,276.95-171.02S441.73,11.01,288.98,11.01ZM288.98,348.6c-150.2,0-272.44-74.73-272.44-166.52S138.78,15.52,288.98,15.52s272.44,74.73,272.44,166.56-122.18,166.52-272.44,166.52ZM288.98,11.01C136.29,11.01,12.04,87.76,12.04,182.08s124.25,171.02,276.94,171.02,276.95-76.74,276.95-171.02S441.73,11.01,288.98,11.01ZM288.98,348.6c-150.2,0-272.44-74.73-272.44-166.52S138.78,15.52,288.98,15.52s272.44,74.73,272.44,166.56-122.18,166.52-272.44,166.52ZM288.98,11.01C136.29,11.01,12.04,87.76,12.04,182.08s124.25,171.02,276.94,171.02,276.95-76.74,276.95-171.02S441.73,11.01,288.98,11.01ZM288.98,348.6c-150.2,0-272.44-74.73-272.44-166.52S138.78,15.52,288.98,15.52s272.44,74.73,272.44,166.56-122.18,166.52-272.44,166.52Z"></path><g><path class="cls-1" d="M256.39,218.33l-3.37-1.42c-1.9-.81-5.09-2.18-6.61-3.61-1.05-.99-1.49-2.22-1.49-3.68,0-1.88.59-3.47,1.91-4.8,1.32-1.31,2.94-1.88,4.77-1.88,1.97,0,3.76.51,5.32,1.76.48.41.75,1.04.91,1.68.38,1.48.48,3.43.58,4.96v1.38h5.49v-10.99l-.47-.18c-3.96-1.45-8.1-2.33-12.31-2.33-3.75,0-7.33.92-10.28,3.4-2.7,2.27-4.14,5.19-4.14,8.79,0,2.92.94,5.5,2.87,7.65,2.29,2.54,5.81,4.3,8.91,5.54l3.7,1.46c1.56.61,3.61,1.57,4.74,2.87.91,1.12,1.2,2.62,1.2,4.05,0,1.86-.56,3.47-1.88,4.75-1.37,1.32-3.05,1.85-4.91,1.85-2.52,0-4.86-.66-6.97-2.06-.35-.24-1.48-1.02-1.62-1.45-.35-1.02-.59-5.04-.69-6.18l-.13-1.4h-5.46v11.61l.42.19c4.4,2.09,9.04,3.11,13.88,3.11,4.12,0,8.15-.95,11.44-3.61,2.98-2.41,4.52-5.57,4.52-9.46,0-2.58-.67-4.99-2.33-6.96-1.98-2.23-5.34-3.89-8.01-5.02Z"></path><polygon class="cls-1" points="255.86 271.93 251.39 263.35 246.94 271.93 237.74 273.65 244.14 280.8 243.04 290.23 251.39 286.23 259.76 290.23 258.64 280.8 265.05 273.65 255.86 271.93"></polygon><path class="cls-1" d="M343.7,190.16c.57-.7,3.95-.97,4.76-1.02l1.38-.13v-3.71h-22.71v3.71l1.3.13c.88.05,4.25.32,4.85,1.03.59.74.63,4.66.63,5.61v14.64h-24.38v-14.64c0-.95.04-4.87.65-5.62.57-.7,3.95-.97,4.77-1.02l1.38-.13v-3.71h-22.7v3.71l1.35.13c.87.05,4.17.32,4.77,1.03.62.74.66,4.67.66,5.61v36.19c0,.98-.03,4.83-.66,5.59-.59.73-3.9.98-4.75,1.03l-1.38.09v3.76h22.7v-3.76l-1.39-.09c-.82-.05-4.19-.31-4.75-1.02-.61-.77-.66-4.62-.66-5.6v-16.84h24.38v16.84c0,.95-.04,4.87-.65,5.62-.55.68-4,.95-4.81,1l-1.33.09v3.76h22.71v-3.76l-1.38-.09c-.82-.05-4.2-.31-4.76-1.02-.61-.77-.65-4.62-.65-5.6v-36.19c0-.95.03-4.87.65-5.62Z"></path><polygon class="cls-1" points="365.37 271.93 360.91 263.35 356.44 271.93 347.25 273.65 353.66 280.8 352.27 290.23 360.91 286.23 369.26 290.23 368.15 280.8 374.56 273.65 365.37 271.93"></polygon><path class="cls-1" d="M270.99,170.62c-.98-1.01-1.56-1.61-2.15-3.01-2.35-5.02.59-2.61-7.44-9.04-1.96-1.41-4.89-3.01-4.89-6.23,0-4.42,2.35-9.84,4.11-13.05,2.36-4.42,4.51-6.23,7.63-9.04-2.54.2-7.43,5.23-8.61,7.03-4.89,6.62-2.94,3.61-6.06,10.44-.79-6.62,12.14-20.89,12.53-23.5-1.76-1.01-4.11-3.62-5.87-4.23-5.48,4.02-10.38,18.88-12.13,25.92-.78,3.01-.98,5.23,0,8.24.39,1.81,5.67,4.82,9.39,9.44,1.96,2.22,2.36,3.22,2.15,6.62l3.72,1.61c0,2.2-1.76,4.02-.39,5.42,1.56,1.81,9,.81,11.55.6.39-3.01-2.36-5.82-3.53-7.23Z"></path><polygon class="cls-1" points="294.59 267.93 289.02 257.35 283.44 267.93 272.3 269.93 280.09 278.8 278.71 290.23 289.02 285.37 299.6 290.23 297.93 278.8 306.01 269.93 294.59 267.93"></polygon><polygon class="cls-1" points="330.81 271.93 326.35 263.35 321.89 271.93 312.7 273.65 319.11 280.8 317.72 290.23 326.35 286.23 334.71 290.23 333.6 280.8 340.01 273.65 330.81 271.93"></polygon><path class="cls-1" d="M245.74,170.02c.98,6.43.39,2.81,3.72,5.42.78,1.2-1.57,3.01-1.17,6.83,1.76.6,9.59,1.41,11.35.6,1.76-1.4-1.96-7.03-2.73-8.03-1.57-2.41-3.72-3.82-5.1-6.43-2.54-4.61-5.28-11.65-5.09-18.08.4-9.84,7.63-30.53,13.7-32.74,2.55,1.41,4.89,3.61,7.63,5.02,2.74,1.41,5.68,2.82,8.81,3.82,9.4,3.42,20.36,5.42,30.54,6.83,3.52.6,4.11,2.82,6.85,5.62l6.45,6.23c1.38,1.01,5.87,5.23,6.46,6.63.19,2.61-8.61,3.82-9.98,3.61-2.55,0-3.53-.4-5.68-1.2-2.36-.81-1.76,1.81-5.09,1.41-1.18-1.61-1.18-2.82-2.74-4.23-6.06-5.02-9.59,8.24-9.4,9.85,1.96.4,3.53,0,5.28-.2,3.14-.2,7.63,0,10.57,1.01,2.16.8,1.96,1.6,4.51.6,4.51-1.41,8.81-3.22,13.7-3.62,2.55-.4,2.94.2,4.51-1.4,4.49-4.83,2.15-6.64,0-11.66-3.33-7.23-1.76-5.02-10.38-7.43-2.94-1-7.04-1.41-8.02-3.61,5.87.4,20.55,5.02,26.23,7.23,4.89,2.01,7.24,3.01,7.63,9.65,0,2.01,0,5.83-.98,7.43-.78,1.41-1.57,1-1.38,2.82,0,1.6,1.38,4.82-1.96,3.81-.78-.19-.78-.4-1.96-.6-2.15,2.61-3.91,2.42-2.94,6.24.59,2.41,1.57,6.42,2.55,8.23,1.37-.19,1.96-1.4,2.74-2.41.98-1.2,1.75-1.6,2.54-2.61,1.76-2,3.33-4.01,5.1-6.02,3.32-3.61,2.73-1.6,2.34-7.63-.19-3.61-.39-7.03-.39-10.65.19-5.42.58-4.42-.98-9.24-1.57-3.82-1.96-3.22-5.48-5.43l-10.96-7.62c-.2-.2-.78-.61-.98-.81-.59-.6-.2.19-.59-.81,1.96-1.6,4.3,1,7.63,3.61,2.34,1.81,5.09,4.02,7.63,5.43-.98-2.01-4.31-4.83-5.87-6.43-1.57-1.61-5.29-4.82-6.08-6.43.59-2.81,1.96-5.02,2.55-8.64.4-3.42-.59-7.84.98-10.25,1.57-2.2,2.94-4.42,4.51-6.83,1.17-2.22,2.94-5.23,4.3-7.23,2.55.6,5.68,3.41,8.42,1.81-1.96-1.2-6.27-2.22-6.66-5.02,1.37.4,2.74,1.4,3.72,2,2.54,1.41,2.54.81,5.09,1.41l10.57,7.43c1.76,1.2,2.94,6.43,5.87,6.03,2.15-.41,4.51-.81,5.09-2.61.4-.6.19-.6.59-1.2.39-1.01.78-.81,1.37-1.61-2.34-6.42-6.85-13.45-9.98-19.49-1.17-2-1.17-4.42-1.96-5.62-.39-.8-2.55-2.61-3.53-3.61-3.32-3.61-.58-6.02.59-11.25-1.76,1-2.15,2.81-3.91,3.01l-.19-4.82c-3.72,1.6-2.36,4.01-6.85,1.41-6.27-3.82-21.93-8.65-26.63-4.42.19.19,8.23.8,11.16,1.81.39.19.98.4,1.56.6.98.6.78.19,1.17,1.2-2.15,1-24.85-3.82-27.59,2.01,3.53-.41,11.16.19,13.89,2.2-2.15,3.82-20.15.41-23.87-.4-2.36-.6-5.09-1.61-7.44-2.01,1.38,3.61,9.98,6.02,14.1,8.03-4.31.41-9.2-.4-14.1.2-4.3.6-9.19,1.41-11.15,4.62,3.91-.81,14.49-3.02,16.44,1-.4.6-1.57,1.2-2.74,1.41-.98.4-1.96.6-3.33.81-2.34.4-5.67.59-8.02.59-5.68.2-9.79-1-14.87-2.2,2.34,5.62,20.55,6.23,23.68,8.03-13.89,3.62-26.42-.6-39.14-3.61-24.67-5.62-28.58,2.41-32.69,3.22-.78.2-3.72-.41-5.09-.41-14.49-.8-22.12,10.25-28.18,17.68-4.11,4.83-5.48,8.04-14.68,8.44-5.1.2-9.79-.6-14.1-3.22-1.56-1-2.15-1.81-3.52-2.41,2.94,5.62,10.57,6.43,13.11,7.84.19,0,.19.19.4.19,0,0,.19,0,.19.2-5.1,0-9.79-1.81-13.12-4.22-4.49-3.42-5.28-6.24-8.41-9.04,0,8.24,3.91,17.27,8.81,22.7,1.75,2.01,4.11,3.22,5.87,4.82-6.08,0-11.74-5.02-14.68-7.63.98,3.42,7.43,7.84,11.74,9.04,11.15,3.61,23.87.2,33.27-5.83,3.53-2.41,8.81-7.23,10.76-10.24-1.76.19-5.68,4.01-8.81,4.61l4.7-7.43c4.49-7.43,6.45-18.88,16.83-19.69-1.37,2.82-2.94,4.02-3.32,8.24-1.18,12.05,8.22,21.1,8.81,25.31-.19-.6-2.36-2.82-3.13-3.82-5.87-7.43-5.87-12.26-7.63-15.27-1.57,3.42,2.15,11.25,3.52,13.46,2.16,4.22,4.89,7.43,7.44,10.65,4.51,5.42,5.68,3.42,6.46,11.85.58,6.83-1.18,12.05-.78,16.87,5.28,3.62,8.81,9.85,9.98,16.68Z"></path><path class="cls-1" d="M134.88,199.21c-5.57,0-10.62,1.68-14.43,5.97-3.94,4.45-5.27,10.22-5.27,16.11s1.33,11.66,5.27,16.11c3.81,4.29,8.86,5.99,14.43,5.99s10.62-1.7,14.42-5.99c3.96-4.44,5.28-10.23,5.28-16.11s-1.31-11.66-5.26-16.11c-3.81-4.3-8.86-5.97-14.44-5.97ZM142.37,234.53c-1.72,2.88-4.08,5.04-7.5,5.04s-5.76-2.17-7.47-5.04c-2.35-3.95-3.11-8.67-3.11-13.24s.78-9.27,3.13-13.23c1.7-2.86,4.04-5.08,7.45-5.08s5.79,2.2,7.5,5.08c2.34,3.96,3.11,8.66,3.11,13.23s-.75,9.29-3.11,13.24Z"></path><path class="cls-1" d="M95.93,212.62c2.72-1.26,5.33-2.94,7.27-5.25,2.15-2.57,3.22-5.6,3.22-8.99,0-3.87-1.16-7.33-4.19-9.79-3.28-2.63-7.81-3.3-11.85-3.3h-23v3.71l1.35.13c.88.05,4.18.32,4.79,1.03.61.74.66,4.67.66,5.61v36.19c0,.98-.03,4.83-.67,5.59-.59.73-3.89.98-4.75,1.03l-1.38.09v3.76h21.98c4.74,0,10.5-.63,14.43-3.61,3.55-2.69,4.86-6.7,4.86-11.12,0-3.99-1.28-7.47-4.03-10.3-2.41-2.48-5.44-3.96-8.68-4.79ZM83.18,189.29h1.15c2.99,0,7.55.28,10.03,2.23,2.24,1.77,2.74,4.93,2.74,7.66,0,3.19-.68,6.46-3.05,8.71-2.47,2.34-6.12,2.92-9.36,2.92h-1.52v-21.52ZM96.38,235.55c-2.09,2.09-4.72,2.91-7.6,2.91-1.54,0-3.65-.14-5.02-.9-.54-.55-.58-4.8-.58-5.59v-17.12c8.68.14,16.09,2.97,16.09,13.16,0,2.91-.84,5.48-2.88,7.54Z"></path><path class="cls-1" d="M180.11,199.21c-5.57,0-10.62,1.68-14.43,5.97-3.94,4.45-5.27,10.22-5.27,16.11s1.33,11.66,5.27,16.11c3.81,4.29,8.86,5.99,14.43,5.99s10.62-1.7,14.43-5.99c3.95-4.44,5.27-10.23,5.27-16.11s-1.31-11.67-5.25-16.11c-3.81-4.3-8.87-5.97-14.45-5.97ZM187.6,234.53c-1.72,2.88-4.08,5.04-7.5,5.04s-5.76-2.17-7.47-5.04c-2.36-3.95-3.11-8.67-3.11-13.24s.79-9.27,3.13-13.23c1.7-2.86,4.04-5.08,7.45-5.08s5.79,2.2,7.5,5.08c2.34,3.96,3.11,8.66,3.11,13.23s-.75,9.29-3.11,13.24Z"></path><path class="cls-1" d="M219.71,190.66l-8.69,2.2v7.24h-5.87v4.54h5.87v24.31c0,3.7.57,8.05,3.1,10.91,2.47,2.79,6.28,3.52,9.8,3.52,1.89,0,3.75-.48,5.51-1.22l.44-.18v-4.66l-1.01.47c-1.15.53-2.59,1.09-3.87,1.09-1.61,0-3.12-.42-4.01-1.88-1.11-1.8-1.26-5.02-1.26-7.08v-25.29h11.07v-4.54h-11.07v-9.44Z"></path><polygon class="cls-1" points="221.3 271.93 216.84 263.35 212.38 271.93 203.18 273.65 209.59 280.8 208.49 290.23 216.84 286.23 225.48 290.23 224.09 280.8 230.5 273.65 221.3 271.93"></polygon><path class="cls-1" d="M487.92,199.21c-5.28,0-9.71,1.99-13.15,6.11-3.68,4.41-5.09,9.82-5.09,15.55,0,6.09,1.61,11.7,5.69,16.21,3.94,4.37,8.97,6.31,14.73,6.31,4.39,0,8.79-1.19,12.84-2.83l.46-.18v-5.59l-1.09.65c-3.36,2.01-7.22,2.72-11.07,2.72s-6.87-1.32-9.02-4.55c-2.43-3.65-3.06-8.8-3.12-13.19h24.29v-1.45c0-5.03-.85-10.51-3.99-14.55-2.89-3.72-6.94-5.19-11.5-5.19ZM494.32,216.6h-15.05c.06-3.35.6-6.98,2.29-9.87,1.33-2.28,3.19-3.74,5.85-3.74,2.24,0,4.1.75,5.25,2.77,1.48,2.6,1.7,6.98,1.7,9.91l-.03.92Z"></path><path class="cls-1" d="M502.84,185.85c-.36-.42-.81-.8-1.34-1.15,1.05-.16,1.86-.58,2.43-1.24.58-.66.86-1.52.86-2.59,0-.86-.18-1.58-.56-2.19-.38-.61-.85-1.04-1.43-1.29s-1.55-.37-2.9-.37h-5.3v13.75h2.51v-5.74h.52c.59,0,1.01.05,1.27.15.27.11.52.29.75.57.24.27.68.95,1.33,2.02l1.82,3h3.01l-1.52-2.69c-.61-1.08-1.09-1.82-1.44-2.24ZM498.97,182.84h-1.87v-3.5h1.98c1.12,0,1.81.03,2.04.11.32.1.59.28.78.55.19.27.29.61.29,1.05s-.1.82-.29,1.1c-.19.28-.45.46-.75.55-.31.1-1.04.14-2.18.14Z"></path><path class="cls-1" d="M499.54,172.5c-6.12,0-11.1,5.11-11.1,11.39s4.98,11.39,11.1,11.39,11.11-5.11,11.11-11.39-4.98-11.39-11.11-11.39ZM499.54,192.8c-4.79,0-8.67-4-8.67-8.91s3.89-8.91,8.67-8.91,8.68,3.99,8.68,8.91-3.9,8.91-8.68,8.91Z"></path><path class="cls-1" d="M373.3,199.21c-5.57,0-10.62,1.68-14.42,5.97-3.95,4.45-5.28,10.22-5.28,16.11s1.33,11.66,5.28,16.11c3.8,4.29,8.85,5.99,14.42,5.99s10.62-1.7,14.43-5.99c3.95-4.44,5.27-10.23,5.27-16.11s-1.31-11.67-5.25-16.11c-3.81-4.3-8.87-5.97-14.45-5.97ZM380.8,234.53c-1.71,2.88-4.06,5.04-7.5,5.04s-5.75-2.17-7.46-5.04c-2.37-3.95-3.11-8.67-3.11-13.24s.77-9.27,3.12-13.23c1.7-2.86,4.04-5.08,7.45-5.08s5.79,2.2,7.5,5.08c2.34,3.96,3.11,8.66,3.11,13.23s-.75,9.29-3.11,13.24Z"></path><path class="cls-1" d="M424.22,199.21c-5.32,0-9.28,2.71-12.22,6.85v-5.96h-15.44v3.77l1.35.09c.87.05,4.16.33,4.77,1.05.6.74.63,4.62.63,5.57v21.38c0,.98-.03,4.83-.65,5.6-.58.71-3.91.97-4.76,1.02l-1.35.09v3.76h23.12v-3.79l-2.27-.06c-.87-.05-4.09-.3-4.72-1.04-.66-.77-.69-4.59-.69-5.58v-19.78c1.87-3.12,4.44-5.41,8.17-5.41.18,0,.92.02,1.03.24.29.68.54,3.14.63,3.92l.08,1.34h5.46v-12.47l-.51-.15c-.86-.27-1.76-.45-2.66-.45Z"></path><path class="cls-1" d="M453.22,218.33l-3.37-1.42c-1.9-.81-5.09-2.18-6.61-3.61-1.05-.99-1.49-2.23-1.49-3.68,0-1.88.59-3.47,1.91-4.8,1.32-1.31,2.94-1.88,4.77-1.88,1.96,0,3.76.51,5.31,1.76.48.41.76,1.04.93,1.68.37,1.48.48,3.43.57,4.96v1.38h5.51v-10.99l-.47-.18c-3.96-1.45-8.1-2.33-12.31-2.33-3.75,0-7.34.92-10.28,3.4-2.7,2.27-4.14,5.19-4.14,8.79,0,2.92.92,5.5,2.87,7.65,2.29,2.53,5.81,4.3,8.9,5.54l3.71,1.46c1.55.61,3.61,1.57,4.74,2.87.91,1.12,1.2,2.62,1.2,4.05,0,1.86-.57,3.47-1.88,4.75-1.37,1.32-3.05,1.85-4.91,1.85-2.52,0-4.86-.66-6.97-2.06-.36-.24-1.49-1.02-1.62-1.45-.37-1.04-.59-5.02-.69-6.18l-.13-1.4h-5.46v11.61l.42.19c4.39,2.09,9.04,3.11,13.87,3.11,4.13,0,8.16-.95,11.45-3.61,2.98-2.41,4.51-5.57,4.51-9.46,0-2.58-.66-4.99-2.32-6.96-1.98-2.23-5.34-3.89-8.01-5.02Z"></path></g></g></g></svg>