<svg width="45" height="34" viewBox="0 0 45 34" fill="none" xmlns="http://www.w3.org/2000/svg">
<path d="M42.0093 9.15972C41.8687 9.16533 41.8358 9.28877 41.7709 9.37106C41.1893 10.1024 40.6165 10.8393 40.0321 11.5678C39.5262 12.199 38.9951 12.8106 38.4077 13.3745C38.3389 13.44 38.2624 13.497 38.1674 13.5765C36.4238 11.9895 34.6037 10.5176 32.6294 9.2551C32.5664 8.74918 32.5199 8.27038 32.4443 7.79625C32.3706 7.33521 32.2863 6.87324 32.169 6.42156C32.0489 5.95959 31.8812 5.50884 31.731 5.0422C31.9781 4.88509 32.2475 4.84768 32.5092 4.79999C33.2584 4.66439 34.0153 4.67842 34.7674 4.75043C35.1328 4.78503 35.4914 4.89538 35.85 4.98048C37.0838 5.27225 38.3331 5.47424 39.596 5.59488C40.8889 5.71832 42.1847 5.74731 43.4786 5.60142C43.8885 5.5556 44.2937 5.47424 44.7007 5.40971C44.7841 5.39662 44.8674 5.38634 44.9595 5.37324C45.039 5.61639 44.9828 5.84644 44.9488 6.07462C44.8238 6.90598 44.6038 7.7177 44.3596 8.52287C44.2229 8.97081 44.0775 9.41689 43.9176 9.85828C43.5484 10.8795 42.9882 11.8034 42.331 12.675C41.6914 13.5232 40.9596 14.2919 40.1542 14.9951C40.0719 15.0671 39.9798 15.1279 39.8964 15.1896C39.658 15.0232 38.8865 14.2853 38.5958 13.9468C38.6491 13.8776 38.7014 13.7991 38.7634 13.728C39.9352 12.3898 40.9383 10.9375 41.8901 9.45055C41.9472 9.36171 42.0442 9.28035 42.0006 9.15317C42.1353 9.1326 42.1527 9.02131 42.1895 8.92499C42.2021 8.90629 42.2167 8.88852 42.2283 8.86888C42.2293 8.86701 42.2167 8.85579 42.2099 8.84924C42.207 8.8773 42.2041 8.90629 42.2012 8.93434C42.0519 8.97268 42.0277 9.00074 42.0093 9.16065V9.15972Z" fill="#020202"/>
<path d="M2.90796 8.908C2.94866 9.00713 2.9758 9.1156 3.03299 9.20538C4.01381 10.7559 5.05763 12.2634 6.27688 13.6521C6.32243 13.7035 6.3612 13.7606 6.41839 13.8344C5.99388 14.2496 5.57518 14.6583 5.13905 15.0847C5.07799 15.0464 5.01596 15.0174 4.96653 14.9753C3.67847 13.8709 2.58134 12.6159 1.74396 11.1571C1.43963 10.6268 1.19054 10.0732 0.994767 9.49715C0.656518 8.50494 0.347344 7.50432 0.143813 6.47658C0.0798465 6.15301 0.043017 5.82477 0.00231083 5.49746C-0.00738112 5.41984 0.0158796 5.33942 0.0265407 5.23468C0.242671 5.2777 0.435541 5.32165 0.630349 5.35438C1.71488 5.533 2.80619 5.58069 3.90623 5.55264C5.9396 5.50214 7.92548 5.16361 9.89004 4.68387C9.94529 4.67078 9.99859 4.64459 10.0548 4.63992C10.9794 4.57352 11.9031 4.52022 12.8151 4.74653C12.9643 4.783 13.1262 4.79983 13.2609 4.93169C13.1175 5.37776 12.9498 5.82851 12.8296 6.29048C12.7114 6.74216 12.6271 7.20413 12.5534 7.66423C12.4768 8.13929 12.4322 8.6181 12.3683 9.12963C10.4047 10.3884 8.57969 11.8528 6.83514 13.4501C6.74694 13.379 6.6665 13.3276 6.60253 13.2602C6.21873 12.8544 5.81651 12.4616 5.46276 12.0324C4.69128 11.0963 3.94597 10.1405 3.18709 9.19509C3.10374 9.09129 3.06012 8.9454 2.89924 8.91548C2.9128 8.83132 2.89439 8.77053 2.74513 8.76305C2.81879 8.82851 2.86338 8.86872 2.90796 8.908Z" fill="#020202"/>
<path d="M17.0728 25.6118C18.0856 26.4198 19.2263 26.9725 20.4504 27.4223C20.3564 27.5729 20.2857 27.6897 20.211 27.8048C19.0819 29.5255 17.8501 31.1751 16.5194 32.7555C16.3575 32.9472 16.1879 33.1324 16.0144 33.3147C15.6549 33.6916 15.211 33.8253 14.6963 33.7028C14.2127 33.5878 13.7281 33.4756 13.2542 33.3288C12.5224 33.1025 11.8004 32.8462 11.0744 32.605C10.459 32.4011 10.1954 31.9466 10.1091 31.3603C10.0781 31.1498 10.1421 30.9768 10.3107 30.8478C10.4997 30.7028 10.6916 30.5579 10.8942 30.4326C11.6259 29.9809 12.347 29.5133 13.0409 29.0074C14.3503 28.0535 15.5889 27.022 16.752 25.9055C16.8518 25.8101 16.9555 25.7194 17.0728 25.6118ZM18.3977 27.1006C18.3977 26.9603 18.2639 26.8341 18.1253 26.8416C17.9838 26.849 17.8588 26.9828 17.8675 27.1174C17.8753 27.2399 17.9887 27.3428 18.1215 27.3503C18.2697 27.3578 18.3977 27.2427 18.3977 27.1006ZM19.7788 27.6467C19.6809 27.6374 19.5898 27.7141 19.5849 27.8094C19.5801 27.903 19.6673 27.9909 19.7642 27.9853C19.8583 27.9806 19.9164 27.9273 19.9368 27.8422C19.9581 27.7533 19.8747 27.6551 19.7788 27.6458V27.6467ZM17.2676 26.3123C17.2715 26.2178 17.1746 26.1336 17.0718 26.1421C16.9846 26.1486 16.9158 26.2206 16.9167 26.3057C16.9167 26.3899 16.9846 26.4694 17.066 26.4796C17.161 26.4927 17.2647 26.4067 17.2676 26.3123ZM18.7863 27.5766C18.8183 27.5401 18.89 27.4906 18.9104 27.426C18.9404 27.3316 18.8396 27.2353 18.7408 27.2399C18.6565 27.2437 18.5789 27.3119 18.5673 27.3924C18.5527 27.4887 18.638 27.5766 18.7863 27.5775V27.5766ZM19.2787 27.4775C19.1788 27.4672 19.0858 27.5439 19.0848 27.6374C19.0839 27.7318 19.1672 27.8151 19.2661 27.816C19.3475 27.8169 19.4241 27.7533 19.4367 27.6729C19.4512 27.5785 19.3775 27.4868 19.2796 27.4765L19.2787 27.4775ZM17.7309 26.6985C17.7367 26.6022 17.6553 26.5114 17.5593 26.5086C17.4663 26.5058 17.3645 26.5993 17.3732 26.6873C17.382 26.7761 17.4372 26.8341 17.5293 26.8518C17.6301 26.8705 17.7251 26.7967 17.7318 26.6985H17.7309Z" fill="#020202"/>
<path d="M24.5664 27.2936C25.7711 26.8391 26.908 26.3088 27.8733 25.5205C28.0429 25.5383 28.1117 25.6533 28.198 25.7375C29.6014 27.0906 31.1124 28.3213 32.7309 29.4276C33.2184 29.7605 33.7282 30.0645 34.2254 30.3852C34.3785 30.4843 34.5249 30.5947 34.6693 30.706C34.8525 30.8453 34.9232 31.0267 34.8864 31.2521C34.7982 31.802 34.5637 32.2499 33.987 32.4547C32.8521 32.8578 31.7191 33.2674 30.5367 33.5292C30.3312 33.5751 30.1151 33.5816 29.9038 33.5994C29.5994 33.6246 29.3407 33.5133 29.1284 33.316C28.9239 33.1262 28.7272 32.9251 28.5479 32.7128C27.2433 31.1661 26.025 29.5585 24.9153 27.8743C24.8165 27.7237 24.7166 27.5732 24.6187 27.4217C24.6042 27.3992 24.5984 27.3721 24.5664 27.2926V27.2936ZM26.8469 27.2375C26.9884 27.2459 27.1241 27.1234 27.127 26.985C27.129 26.8578 27.0301 26.7456 26.9002 26.7287C26.7519 26.7091 26.6133 26.8129 26.5998 26.9541C26.5862 27.0916 26.7074 27.229 26.8479 27.2375H26.8469ZM26.436 27.2889C26.436 27.1982 26.3429 27.114 26.2451 27.1168C26.1598 27.1196 26.09 27.1832 26.0813 27.2665C26.0706 27.3637 26.1481 27.4544 26.2441 27.4591C26.3381 27.4638 26.436 27.3768 26.436 27.288V27.2889ZM25.9184 27.5227C25.9213 27.4329 25.8215 27.3366 25.7285 27.3478C25.6374 27.359 25.5753 27.4095 25.5598 27.5002C25.5434 27.5956 25.6248 27.692 25.7217 27.6957C25.8176 27.6994 25.9155 27.6134 25.9184 27.5227ZM25.2468 27.8678C25.3447 27.8603 25.4241 27.7668 25.4125 27.6742C25.4009 27.5788 25.3011 27.5077 25.2022 27.5246C25.1256 27.5377 25.05 27.6237 25.0529 27.6957C25.0558 27.7864 25.1547 27.8752 25.2468 27.8678ZM27.9663 26.3463C27.9954 26.306 28.0633 26.2509 28.0759 26.1854C28.0952 26.0853 27.9867 25.9956 27.8898 26.0133C27.7967 26.0302 27.7396 26.0872 27.7308 26.1798C27.7211 26.2714 27.82 26.3547 27.9663 26.3463ZM27.3887 26.3968C27.3587 26.437 27.2908 26.4903 27.2753 26.5567C27.252 26.6558 27.3587 26.7474 27.4565 26.7343C27.5525 26.7213 27.6058 26.6614 27.6184 26.5707C27.631 26.4781 27.5351 26.3911 27.3887 26.3977V26.3968Z" fill="#020202"/>
<path d="M25.4736 13.8384C25.6965 13.9095 25.8593 14.046 26.0454 14.1414C26.246 14.2452 26.4447 14.3546 26.6483 14.4537C26.8392 14.5463 27.0379 14.622 27.2278 14.7174C27.4149 14.8109 27.633 14.8455 27.7929 14.9877C26.8915 17.3125 25.6606 19.4634 24.3551 21.5787C23.6118 22.7823 22.8451 23.9718 21.9641 25.0828H21.2256C21.0957 24.9649 21.1345 24.8153 21.1025 24.6863C21.0153 24.3346 20.8777 24.229 20.4987 24.257C20.3572 24.2673 20.2186 24.3019 20.0781 24.3244C19.5789 24.4057 19.3677 24.2851 19.2048 23.8231C19.1641 23.7071 19.1389 23.5865 19.1079 23.4724C21.5406 20.4509 23.6311 17.2311 25.4746 13.8393L25.4736 13.8384Z" fill="#020202"/>
<path d="M29.5531 4.34563C29.21 4.55884 28.8698 4.75616 28.5451 4.97499C28.2301 5.18727 27.9239 5.41265 27.6273 5.64924C27.321 5.89332 27.0322 6.15704 26.7376 6.40953C26.6833 6.38241 26.6416 6.36745 26.6087 6.34313C25.5716 5.56975 24.5249 4.80666 23.5751 3.93135C23.327 3.70223 23.0944 3.45909 22.9335 3.16452C22.8482 3.00741 22.7716 2.84095 22.7251 2.67075C22.6156 2.26676 22.793 1.96003 23.201 1.83191C23.5741 1.71408 23.9599 1.72062 24.3437 1.77673C25.4292 1.93384 26.5011 2.15267 27.5624 2.42106C27.6176 2.43509 27.6709 2.45286 27.7262 2.46688C28.3881 2.63615 28.3949 2.63147 28.802 3.17854C29.0346 3.49089 29.242 3.82006 29.4581 4.14363C29.4949 4.19881 29.5153 4.26427 29.5531 4.34563Z" fill="#020202"/>
<path d="M18.264 6.30974C17.3985 5.4868 16.4787 4.80039 15.4456 4.24303C15.4804 4.157 15.4989 4.0906 15.5318 4.03262C15.81 3.55101 16.1405 3.104 16.4933 2.67196C16.5853 2.5588 16.6939 2.49428 16.8393 2.45313C18.044 2.11741 19.2681 1.86491 20.5048 1.67227C20.8246 1.6227 21.1599 1.62738 21.4846 1.65076C22.1873 1.70126 22.4596 2.13237 22.2038 2.76641C22.0409 3.17133 21.756 3.49584 21.4342 3.79322C20.7034 4.47027 19.9126 5.07719 19.114 5.6757C18.8455 5.87769 18.5741 6.07688 18.263 6.3088L18.264 6.30974Z" fill="#020202"/>
<path d="M22.1884 18.2141C21.8492 18.8771 20.6881 20.5913 20.3663 20.913C20.25 20.869 20.218 20.7558 20.1638 20.6651C19.0434 18.8004 17.9957 16.9011 17.2029 14.8512C17.5818 14.6418 18.0054 14.5164 18.3872 14.3116C18.7575 14.1125 19.1287 13.9142 19.4941 13.7188C19.5289 13.7431 19.5609 13.7534 19.5716 13.7739C20.3586 15.2992 21.2619 16.7608 22.1904 18.215L22.1884 18.2141Z" fill="#020202"/>
<path d="M26.7444 11.1674C26.852 10.9298 26.9615 10.6923 27.0662 10.452C27.5071 9.4392 27.952 8.42735 28.3823 7.40989C28.4725 7.19761 28.5859 7.0218 28.7816 6.89275C29.1451 6.65148 29.5066 6.4074 29.871 6.16706C29.9389 6.12218 30.0183 6.09225 30.1094 6.04736C30.1482 6.10441 30.185 6.14462 30.2054 6.19138C30.4806 6.84225 30.6745 7.51557 30.8014 8.20852C30.8295 8.36283 30.8286 8.50591 30.7627 8.65086C30.2286 9.83477 29.6975 11.0196 29.1645 12.2035C29.1538 12.2269 29.1305 12.2456 29.0947 12.2886C28.8931 12.2466 28.6954 12.3045 28.5151 12.4261C28.4802 12.4495 28.4385 12.4626 28.3988 12.4775C28.1701 12.5645 28.078 12.5047 28.079 12.2709C28.0799 12.1343 28.0906 11.9959 28.077 11.8613C28.0644 11.7425 27.9375 11.6677 27.8221 11.7144C27.6797 11.7734 27.5459 11.8529 27.4112 11.9295C27.101 12.1053 26.9557 12.0436 26.8772 11.6957C26.8558 11.6022 26.8481 11.505 26.8258 11.4124C26.8064 11.3329 26.7744 11.2562 26.7444 11.1692V11.1674Z" fill="#020202"/>
<path d="M16.9139 12.3154C16.7656 12.4126 16.6561 12.3762 16.5505 12.335C16.472 12.3042 16.3983 12.2602 16.3256 12.2163C16.1958 12.1377 16.061 12.1321 15.904 12.1957C15.8585 12.1171 15.811 12.0507 15.778 11.9787C15.275 10.8556 14.7749 9.7306 14.269 8.60841C14.1866 8.42511 14.1614 8.2493 14.2002 8.05011C14.3407 7.33284 14.5375 6.63334 14.8496 5.93945C14.9407 5.97031 15.0259 5.98247 15.0889 6.02455C15.5008 6.29575 15.9069 6.57349 16.3159 6.84843C16.4381 6.93073 16.5088 7.04482 16.565 7.1748C17.0932 8.39238 17.6224 9.60903 18.1564 10.8238C18.2204 10.9688 18.2601 11.1006 18.1855 11.2559C18.1448 11.34 18.1477 11.4429 18.1235 11.5364C18.1031 11.6159 18.0818 11.6963 18.045 11.7693C17.9752 11.9086 17.8705 11.9441 17.729 11.8787C17.6525 11.8431 17.5807 11.7964 17.5071 11.7552C17.4208 11.7066 17.3375 11.6524 17.2483 11.6121C17.0487 11.5224 16.912 11.6019 16.9004 11.8151C16.8955 11.8974 16.9091 11.9797 16.911 12.062C16.913 12.1433 16.911 12.2247 16.911 12.3145L16.9139 12.3154Z" fill="#020202"/>
<path d="M14.6079 5.22288C14.5488 5.32949 14.4936 5.40804 14.4597 5.49408C14.1602 6.25437 13.9431 7.03523 13.8403 7.84321C13.7987 8.16958 13.7783 8.49969 13.7463 8.827C13.7366 8.92238 13.7298 9.01964 13.7037 9.11129C13.6329 9.35443 13.41 9.48909 13.1493 9.45823C12.9652 9.43672 12.8304 9.3217 12.8101 9.14215C12.7946 9.00655 12.7985 8.86721 12.8072 8.73068C12.8837 7.44576 13.1541 6.20106 13.6446 5.00218C13.6649 4.95168 13.6795 4.89932 13.7027 4.82731C13.631 4.78242 13.569 4.72631 13.4953 4.70013C12.8246 4.46166 12.1384 4.29052 11.4193 4.25966C11.3059 4.25499 11.1906 4.24751 11.081 4.22132C10.8736 4.17176 10.7796 4.04177 10.7767 3.82855C10.7728 3.60879 10.8814 3.42363 11.0752 3.38061C11.2245 3.34788 11.3854 3.34227 11.5395 3.35162C12.2392 3.3937 12.9206 3.5293 13.5816 3.75561C13.755 3.81453 13.9295 3.86877 14.1243 3.93236C14.1931 3.83604 14.2629 3.75187 14.3172 3.66116C14.6099 3.17207 14.9443 2.71103 15.3184 2.27712C15.3998 2.18173 15.4831 2.08635 15.58 2.00592C15.7652 1.85068 16.0162 1.86471 16.2003 2.0265C16.3554 2.16396 16.3961 2.41459 16.2798 2.5932C16.2197 2.68579 16.1315 2.7606 16.0656 2.84944C15.7681 3.25156 15.4725 3.65555 15.1807 4.06141C15.1245 4.13903 15.0896 4.22974 15.0344 4.33261C15.1187 4.39339 15.1914 4.45698 15.2738 4.50281C16.1916 5.01808 17.0038 5.66054 17.7288 6.4068C17.8063 6.48629 17.8848 6.56952 17.9439 6.6621C18.0592 6.84165 18.0253 7.02961 17.8644 7.18579C17.7006 7.3457 17.4613 7.38217 17.282 7.25967C17.1899 7.19701 17.1123 7.11378 17.0358 7.03336C16.4203 6.39651 15.7332 5.84476 14.9598 5.39495C14.8541 5.33323 14.7388 5.28554 14.6079 5.22195V5.22288Z" fill="#020202"/>
<path d="M30.8605 4.05888C31.0098 4.00932 31.1435 3.9691 31.2754 3.92141C31.9073 3.69604 32.5605 3.56044 33.2273 3.48656C33.4105 3.46599 33.5975 3.4716 33.7827 3.46879C34.0802 3.46505 34.3526 3.80078 34.1645 4.17297C34.1044 4.29174 33.9891 4.34504 33.8505 4.35626C33.5811 4.37871 33.3116 4.40208 33.0432 4.43575C32.4888 4.50402 31.9557 4.65271 31.4372 4.84909C31.3994 4.86312 31.3665 4.89211 31.3122 4.92578C31.3306 4.99965 31.3413 5.07914 31.3703 5.15208C31.7541 6.10595 32.0013 7.09255 32.1282 8.1072C32.166 8.40739 32.1806 8.71038 32.199 9.01244C32.2048 9.10782 32.2029 9.20788 32.1777 9.2986C32.1564 9.37341 32.1089 9.45477 32.0468 9.50153C31.8268 9.66798 31.4207 9.56231 31.3238 9.30982C31.2754 9.18451 31.2589 9.04236 31.2531 8.90676C31.2046 7.8547 30.9875 6.83444 30.625 5.84317C30.5649 5.67858 30.5252 5.5009 30.3798 5.34753C30.2751 5.3971 30.1724 5.43824 30.0784 5.49342C29.3021 5.94136 28.613 6.49217 27.9917 7.12528C27.9132 7.20477 27.8415 7.29267 27.7523 7.36C27.605 7.47222 27.4344 7.47783 27.2677 7.40209C27.102 7.32634 26.9886 7.18887 26.9915 7.01493C26.9934 6.90271 27.0574 6.77459 27.1311 6.68295C27.2716 6.51088 27.4344 6.3547 27.5963 6.2004C28.2282 5.59909 28.926 5.07821 29.6897 4.64149C29.7741 4.59286 29.8545 4.53768 29.9543 4.47503C29.9117 4.37964 29.8826 4.28987 29.8342 4.21038C29.5657 3.77085 29.2672 3.35283 28.9231 2.9638C28.8495 2.88058 28.77 2.79828 28.7109 2.7057C28.5994 2.52989 28.6488 2.27646 28.8078 2.1418C28.9725 2.00152 29.2284 1.98469 29.399 2.11561C29.4872 2.18294 29.5618 2.26991 29.6345 2.35314C30.0038 2.77397 30.3333 3.22191 30.625 3.69697C30.6967 3.81387 30.7733 3.92702 30.8596 4.06075L30.8605 4.05888Z" fill="#020202"/>
<path d="M14.0196 20.7071C14.1776 20.695 14.2076 20.5547 14.2706 20.4584C14.8211 19.6083 15.3697 18.7564 15.9086 17.8988C16.3147 17.2526 16.7052 16.598 17.1026 15.9471C17.1501 15.8686 17.2024 15.7928 17.279 15.7264C17.2141 16.5737 17.0454 17.3948 16.7227 18.1925C16.6917 18.07 16.6607 17.9474 16.6306 17.8305C16.5221 17.8315 16.524 17.8941 16.5153 17.9446C16.461 18.256 16.4028 18.5665 16.3573 18.8789C16.3156 19.1697 16.2139 19.4381 16.0617 19.6887C15.8097 20.103 15.5567 20.5173 15.3028 20.9297C15.2456 21.0223 15.171 21.0045 15.0683 20.9044C15.0993 21.2748 14.9277 21.5123 14.667 21.7508C14.6069 21.5721 14.5575 21.4234 14.4926 21.228C14.4519 21.3065 14.4208 21.3449 14.4112 21.387C14.3918 21.4814 14.386 21.5777 14.3695 21.6722C14.2735 22.2445 13.9925 22.5494 13.3819 22.7373C13.2859 22.5653 13.4129 22.3913 13.3819 22.2174C13.284 22.1791 13.2704 22.2604 13.2394 22.3128C13.127 22.5017 13.0223 22.6981 12.8081 22.8318C12.5396 22.685 12.4427 22.4474 12.4069 22.1856C12.3448 21.7274 12.4485 21.3103 12.7907 20.969C12.9089 20.8502 13.0339 20.738 13.1551 20.622C13.2035 20.5762 13.2733 20.5407 13.251 20.4565C13.2743 20.4565 13.2975 20.4556 13.3198 20.4546C13.3111 20.4397 13.3014 20.4238 13.2927 20.4088C13.2811 20.4275 13.2704 20.4471 13.2588 20.4658C13.1919 20.4789 13.1212 20.4808 13.0591 20.506C12.9467 20.5519 12.8411 20.6117 12.6618 20.6996C12.7257 20.5453 12.7548 20.4574 12.7974 20.377C12.9641 20.0581 13.1328 19.7402 13.3053 19.4231C13.3518 19.338 13.4197 19.2642 13.4642 19.1791C13.5873 18.9443 13.8539 18.833 13.9653 18.574C14.0661 18.3393 14.2667 18.1448 14.4208 17.9297C14.729 17.5014 15.1235 17.1741 15.6197 16.9637C15.6944 16.9319 15.7622 16.886 15.8436 16.8411C15.7293 16.7168 15.6081 16.8645 15.4957 16.7785C15.8727 16.3156 16.4019 16.0182 16.8661 15.5581C16.8681 15.719 16.8041 15.79 16.7605 15.8658C15.9144 17.3312 15.0663 18.7966 14.2222 20.2638C14.1407 20.4051 14.0235 20.535 14.0273 20.7118C14.0041 20.7342 13.9808 20.7567 13.9576 20.7791C13.974 20.7875 13.9915 20.7959 14.008 20.8044C14.0109 20.7707 14.0148 20.738 14.0177 20.7043L14.0196 20.7071ZM13.8296 21.0653L13.817 21.0354L13.8035 21.0653H13.8296Z" fill="#020202"/>
<path d="M31.1125 20.9146C31.0621 20.8501 31.0039 20.7893 30.9632 20.7191C30.0609 19.1593 29.1595 17.5976 28.2592 16.0358C28.2204 15.9685 28.1933 15.8946 28.1845 15.8086C28.6497 16.1209 29.0839 16.4567 29.49 16.8831C29.3708 16.9046 29.2826 16.9196 29.1915 16.9364C29.1964 16.9579 29.1944 16.9878 29.208 16.9972C29.2536 17.0299 29.302 17.0608 29.3544 17.0823C29.8971 17.3039 30.3119 17.6705 30.6366 18.1371C30.7859 18.3513 30.9942 18.529 31.066 18.7936C31.0824 18.8535 31.1416 18.9115 31.1949 18.9526C31.4362 19.1368 31.598 19.379 31.7395 19.6334C31.9411 19.9953 32.1272 20.3666 32.3162 20.7247C32.228 20.8229 32.1747 20.7537 32.1175 20.7275C31.9828 20.6668 31.8675 20.5555 31.6387 20.5545C31.7725 20.6808 31.8617 20.7612 31.947 20.8454C32.0662 20.9632 32.1893 21.0782 32.2988 21.2045C32.6079 21.5589 32.6428 21.9788 32.575 22.4127C32.5411 22.6306 32.4325 22.7615 32.1883 22.9401C31.9062 22.8111 31.8297 22.5044 31.6009 22.2145C31.6213 22.4763 31.6339 22.6474 31.6465 22.8045C31.5428 22.8822 31.4672 22.8354 31.3926 22.8008C30.9613 22.6054 30.6996 22.2855 30.6308 21.8254C30.6095 21.6795 30.5862 21.5346 30.5552 21.3373C30.3836 21.5037 30.4651 21.7207 30.3071 21.8469C30.0813 21.6477 29.9039 21.428 29.932 21.1007C29.8603 21.1044 29.7866 21.1306 29.7449 21.1063C29.6887 21.0736 29.6529 21.0044 29.616 20.9464C29.4193 20.6275 29.2274 20.3058 29.0277 19.9888C28.7864 19.6063 28.6488 19.1929 28.5848 18.7516C28.548 18.4944 28.5005 18.2381 28.4588 17.9894C28.3726 17.9623 28.3377 17.9997 28.326 18.0595C28.3105 18.139 28.3028 18.2213 28.2882 18.3251C28.2398 18.284 28.1952 18.2662 28.1855 18.2363C27.951 17.5125 27.7959 16.7737 27.7125 16.0199C27.7096 15.9947 27.7242 15.9676 27.731 15.9386C27.8666 15.9292 27.8773 16.0499 27.9229 16.1228C28.5606 17.1487 29.1906 18.1783 29.8312 19.2032C30.1404 19.6979 30.4641 20.1833 30.7839 20.6714C30.8372 20.7519 30.8934 20.8342 30.9642 20.8996C30.9933 20.9267 31.066 20.9099 31.1164 20.9136C31.0979 20.9361 31.0747 20.9557 31.0679 20.9791C31.064 20.9922 31.0892 21.0118 31.1008 21.0287C31.1028 21.0165 31.1057 21.0044 31.1067 20.9913C31.1086 20.966 31.1105 20.9408 31.1125 20.9146Z" fill="#020202"/>
<path d="M14.704 2.15185C14.4433 2.54649 14.1836 2.93739 13.9326 3.31706C13.2531 3.13284 12.5989 2.95515 11.8972 2.76438C11.7073 2.30615 11.465 1.82735 11.4543 1.27373C11.4466 0.824854 11.6433 0.513445 12.0513 0.310514C12.4119 0.131898 12.7928 0.0337063 13.195 0.00378114C13.5895 -0.0261441 13.8918 0.121612 14.0934 0.445178C14.203 0.620988 14.3125 0.803345 14.3764 0.996924C14.5015 1.37566 14.5955 1.76376 14.704 2.15372V2.15185Z" fill="#020202"/>
<path d="M33.1102 2.90788C32.7177 2.99859 32.3833 3.06592 32.0548 3.15476C31.7408 3.2408 31.4335 3.34928 31.1011 3.45495C31.0526 3.3979 30.9954 3.34086 30.9509 3.2754C30.7638 2.99952 30.5845 2.71804 30.3945 2.44497C30.317 2.33369 30.2947 2.22989 30.3354 2.09803C30.4294 1.79597 30.507 1.4883 30.5952 1.18437C30.6688 0.93001 30.8006 0.704636 30.9586 0.489548C31.1496 0.230508 31.4122 0.118289 31.7301 0.128576C32.1769 0.143538 32.6024 0.247341 32.9959 0.459623C33.3651 0.658813 33.5599 0.956195 33.5376 1.3686C33.528 1.54628 33.5221 1.72957 33.4708 1.8979C33.3661 2.23924 33.2324 2.57122 33.1093 2.90788H33.1102Z" fill="#020202"/>
<path d="M24.7392 21.9658C24.9262 22.1285 25.626 22.9739 25.8954 23.3601C25.8421 23.5191 25.8014 23.694 25.7268 23.8548C25.5785 24.1737 25.3662 24.2701 25.0067 24.2102C24.839 24.1822 24.6713 24.1504 24.5027 24.1298C24.146 24.0877 23.9764 24.2074 23.8989 24.5525C23.8717 24.6722 23.8572 24.7947 23.8339 24.9359C23.7535 24.9518 23.674 24.9808 23.5946 24.9808C23.4249 24.9808 23.2553 24.9658 23.0421 24.9537C22.9578 24.8489 22.856 24.7227 22.7368 24.5749C22.9277 24.3542 23.109 24.1485 23.2873 23.9381C23.4666 23.7258 23.6469 23.5135 23.8184 23.2956C23.9813 23.088 24.1392 22.8767 24.2885 22.6597C24.4445 22.4334 24.588 22.1987 24.7392 21.9658Z" fill="#020202"/>
<path d="M19.3058 13.3035C18.9084 13.6645 17.7589 14.2452 17.0078 14.4594C16.8653 14.349 16.8217 14.1723 16.7451 14.0161C16.6734 13.8693 16.6046 13.7206 16.5242 13.5523C16.9089 13.3213 17.3257 13.181 17.6959 12.9603C18.0574 12.7443 18.416 12.5245 18.7756 12.3066C18.9462 12.4666 19.1497 12.8481 19.3058 13.3035ZM17.9605 13.6028C18.0972 13.6159 18.197 13.5336 18.2009 13.4391C18.2038 13.3624 18.134 13.2858 18.0477 13.2708C17.945 13.253 17.8394 13.3316 17.8578 13.4326C17.8704 13.4999 17.9324 13.5588 17.9605 13.6018V13.6028ZM17.2414 13.844C17.1832 13.801 17.1561 13.7646 17.1251 13.7608C17.0601 13.7515 17.0185 13.7935 17.0301 13.8553C17.0359 13.8843 17.0844 13.931 17.1067 13.9273C17.1474 13.9207 17.1832 13.8833 17.2423 13.845L17.2414 13.844ZM18.7931 13.1212C18.8541 12.9874 18.8861 12.9454 18.8861 12.9042C18.8861 12.8827 18.8299 12.8434 18.7989 12.8434C18.7291 12.8416 18.7097 12.8949 18.7233 12.9538C18.731 12.9902 18.7523 13.0239 18.794 13.1221L18.7931 13.1212ZM17.724 13.7103C17.6765 13.657 17.6591 13.6187 17.63 13.6065C17.5709 13.5822 17.5176 13.6084 17.5098 13.6682C17.506 13.6963 17.5428 13.7552 17.5651 13.7571C17.6077 13.7608 17.6533 13.7337 17.725 13.7094L17.724 13.7103ZM18.4587 13.3007C18.4984 13.2661 18.544 13.2455 18.5478 13.2184C18.5517 13.1894 18.5256 13.1427 18.4975 13.1258C18.4519 13.0978 18.3802 13.1492 18.3908 13.2016C18.3976 13.2325 18.4286 13.2586 18.4577 13.2998L18.4587 13.3007Z" fill="#020202"/>
<path d="M25.6772 13.412C25.8207 13.0829 25.9748 12.749 26.1744 12.4067C26.3198 12.4554 26.4216 12.5508 26.536 12.6228C26.6668 12.7051 26.7957 12.7902 26.9285 12.8706C27.0487 12.9435 27.1717 13.0127 27.2948 13.0801C27.4179 13.1474 27.5429 13.2138 27.6699 13.2755C27.8095 13.3438 27.9519 13.4055 28.0915 13.4728C28.2156 13.5317 28.3387 13.5944 28.4831 13.6645C28.327 13.9853 28.1826 14.2799 28.0431 14.567C27.4916 14.4893 26.124 13.8198 25.6772 13.4111V13.412ZM27.1514 13.5589C27.1465 13.4579 27.0564 13.3728 26.9643 13.3812C26.8703 13.3896 26.7831 13.4878 26.7928 13.5766C26.8025 13.6683 26.8975 13.7356 27.005 13.7253C27.0894 13.7178 27.1553 13.643 27.1514 13.5589ZM26.6445 13.3531C26.6028 13.2961 26.5689 13.2353 26.5592 13.2381C26.5137 13.254 26.4681 13.283 26.4361 13.3195C26.4284 13.3279 26.4739 13.4074 26.4962 13.4074C26.5408 13.4074 26.5854 13.3774 26.6445 13.3531ZM27.417 13.6599C27.3598 13.7291 27.3026 13.7693 27.3074 13.7992C27.3142 13.8357 27.3695 13.8712 27.4121 13.889C27.4266 13.8946 27.4896 13.8441 27.4887 13.8216C27.4867 13.7796 27.4538 13.7384 27.416 13.6599H27.417ZM28.0363 13.9769C27.949 13.9217 27.9122 13.8852 27.8696 13.8777C27.8492 13.874 27.7998 13.9236 27.7969 13.9516C27.794 13.9825 27.8308 14.0433 27.8502 14.0433C27.8948 14.0433 27.9393 14.0143 28.0363 13.9778V13.9769ZM26.2917 13.0585C26.2578 13.0193 26.2394 12.9809 26.2093 12.9688C26.1589 12.9473 26.0921 13.008 26.1114 13.0557C26.1231 13.0838 26.1638 13.1156 26.1938 13.1184C26.221 13.1212 26.251 13.0857 26.2917 13.0585Z" fill="#020202"/>
<path d="M18.4724 24.156C18.6149 23.9961 18.7428 23.8521 18.8601 23.7202C19.0035 23.7455 18.9793 23.8521 19.019 23.9166C19.0917 24.0335 19.1431 24.1654 19.2284 24.2729C19.3951 24.4842 19.6219 24.5834 19.902 24.546C20.0289 24.5282 20.154 24.5048 20.2809 24.4861C20.3788 24.4712 20.4777 24.4515 20.5756 24.4478C20.7607 24.4412 20.8392 24.4983 20.8789 24.6685C20.9109 24.8022 20.9225 24.9397 20.9545 25.0734C20.9894 25.2183 21.0689 25.2857 21.223 25.2941C21.3907 25.3034 21.5593 25.296 21.7299 25.296C21.704 25.4437 21.621 25.6102 21.4808 25.7953C20.813 25.7 19.0946 24.7723 18.4714 24.156H18.4724Z" fill="#020202"/>
<path d="M23.5032 25.6878C23.4199 25.555 23.3443 25.4399 23.2764 25.3221C23.258 25.2903 23.2629 25.2454 23.2522 25.1818C23.4179 25.1818 23.5711 25.1865 23.7232 25.1809C23.918 25.1725 24.0091 25.1014 24.0489 24.9191C24.0876 24.747 24.1138 24.5721 24.138 24.4346C24.2699 24.3271 24.3803 24.3168 24.4966 24.3336C24.6507 24.357 24.8048 24.3804 24.958 24.4075C25.3941 24.4842 25.7014 24.3402 25.902 23.9558C25.964 23.838 26.0105 23.7127 26.0745 23.5649C26.2596 23.7136 26.3934 23.8642 26.5068 24.0307C26.0251 24.5712 24.4201 25.4596 23.5022 25.6868L23.5032 25.6878Z" fill="#020202"/>
<path d="M16.338 13.1498C16.2362 12.887 16.0007 12.6934 16.1006 12.3596C16.1878 12.3904 16.2518 12.4092 16.3128 12.4353C16.3903 12.469 16.463 12.5158 16.5435 12.5429C16.9244 12.6691 17.1192 12.5363 17.1221 12.152C17.1221 12.0463 17.1221 11.9406 17.1221 11.8256C17.3072 11.8163 17.4119 11.9229 17.5243 11.9958C17.8781 12.2259 18.1349 12.1174 18.2861 11.7358C18.32 11.6498 18.3404 11.5582 18.3694 11.46C18.5332 11.6124 18.5342 11.6115 18.6147 11.8705C18.2018 12.281 17.1269 12.8908 16.337 13.1498H16.338Z" fill="#020202"/>
<path d="M28.8777 12.4545C29.023 12.8089 28.7313 12.9931 28.7003 13.2428C28.3853 13.2054 28.1314 13.1025 27.4723 12.7416C27.0905 12.5321 26.7183 12.3086 26.3694 12.0168C26.4091 11.8588 26.4595 11.711 26.602 11.5586C26.6349 11.6409 26.6572 11.6998 26.6815 11.7578C26.7173 11.8466 26.7435 11.9411 26.7929 12.0224C26.9179 12.2263 27.1157 12.2833 27.3405 12.187C27.4181 12.1534 27.4869 12.1029 27.5605 12.0626C27.6448 12.0168 27.7301 11.9738 27.8028 11.9345C27.9123 11.9841 27.8794 12.0598 27.8804 12.1216C27.8823 12.2039 27.8697 12.2861 27.8745 12.3675C27.8901 12.635 28.0606 12.7584 28.3349 12.7004C28.4173 12.6827 28.4968 12.6499 28.5733 12.6153C28.6625 12.5751 28.7459 12.5246 28.8777 12.4545Z" fill="#020202"/>
<path d="M19.5316 26.5793C19.3456 26.5765 19.2157 26.5045 19.0693 26.396C19.2651 26.0725 19.52 25.8106 19.7846 25.5254C19.9251 25.5955 20.056 25.6619 20.2091 25.7386C20.1229 25.9294 19.9881 26.05 19.8767 26.1837C19.7633 26.3203 19.6421 26.4521 19.5307 26.5793H19.5316Z" fill="#020202"/>
<path d="M25.9185 26.2505C25.8041 26.4001 25.6452 26.4132 25.5056 26.4871C25.2362 26.2196 25.0123 25.9456 24.7961 25.6538C24.9057 25.5136 25.0559 25.479 25.2061 25.4116C25.4833 25.6697 25.7178 25.9493 25.9185 26.2505Z" fill="#020202"/>
<path d="M25.9883 24.9555C26.123 24.8611 26.2228 24.7909 26.3362 24.7114C26.5271 24.8106 26.6153 24.9892 26.7433 25.1285C26.8654 25.2613 26.9749 25.4053 27.0941 25.5493C27.036 25.6962 26.9003 25.7438 26.7598 25.8187C26.5843 25.7251 26.4932 25.5484 26.3653 25.4091C26.2432 25.2763 26.1346 25.1332 25.9873 24.9555H25.9883Z" fill="#020202"/>
<path d="M18.2871 25.9398C18.1989 25.9108 18.1553 25.9043 18.1213 25.8837C18.0506 25.8397 17.9857 25.7883 17.8965 25.7238C18.0981 25.3909 18.3559 25.1159 18.6244 24.8447C18.7765 24.899 18.8918 24.9635 18.9897 25.1056C18.7581 25.3806 18.5294 25.6527 18.2871 25.9398Z" fill="#020202"/>
<path d="M18.8744 26.2562C18.6854 26.2516 18.5836 26.1646 18.4722 26.0598C18.698 25.7456 18.9287 25.4576 19.2097 25.1948C19.328 25.2659 19.4346 25.3304 19.5654 25.409C19.3619 25.7344 19.1041 25.9963 18.8754 26.2562H18.8744Z" fill="#020202"/>
<path d="M26.1551 26.1508C25.8886 25.9002 25.6725 25.614 25.4282 25.312C25.4854 25.2652 25.5319 25.2212 25.5852 25.1866C25.6434 25.1492 25.7074 25.1202 25.7859 25.0791C26.0737 25.3316 26.2937 25.6271 26.5205 25.9207C26.4284 26.0629 26.3015 26.1096 26.1551 26.1508Z" fill="#020202"/>
<path d="M27.6106 25.2302C27.5137 25.2994 27.4158 25.3686 27.3034 25.4481C27.0194 25.1638 26.78 24.8795 26.5532 24.5634C26.6366 24.4942 26.7093 24.4334 26.78 24.3745C27.063 24.5784 27.4042 24.9281 27.6106 25.2292V25.2302Z" fill="#020202"/>
<path d="M23.772 26.0574C23.864 26.0135 23.9377 25.978 24.0337 25.9321C24.3138 26.1678 24.5163 26.4624 24.7421 26.7373C24.5754 26.8804 24.5764 26.8832 24.3167 26.9318C24.1122 26.6672 23.9106 26.3922 23.772 26.0584V26.0574Z" fill="#020202"/>
<path d="M17.3501 25.3352C17.6447 25.0294 17.9025 24.761 18.172 24.4805C18.2699 24.5525 18.3455 24.6077 18.4337 24.6731C18.36 24.8714 18.2001 24.9939 18.0838 25.1435C17.9733 25.2856 17.8502 25.4175 17.7417 25.5437C17.5662 25.5568 17.5081 25.4269 17.3501 25.3343V25.3352Z" fill="#020202"/>
<path d="M20.9448 26.0664C21.0408 26.1066 21.1271 26.1421 21.2298 26.1842C21.0863 26.5078 20.8886 26.7715 20.6948 27.053C20.53 27.0614 20.4002 26.9922 20.2412 26.9033C20.4457 26.5891 20.6773 26.3245 20.9458 26.0654L20.9448 26.0664Z" fill="#020202"/>
<path d="M20.4359 25.8359C20.5367 25.8855 20.6084 25.922 20.6859 25.9603C20.6656 26.0117 20.6588 26.0548 20.6345 26.0838C20.431 26.3288 20.2246 26.57 20.0094 26.8244C19.9183 26.7889 19.8437 26.7599 19.738 26.7197C19.9232 26.3755 20.2052 26.1333 20.4359 25.8359Z" fill="#020202"/>
<path d="M24.2981 25.8812C24.4134 25.7531 24.5113 25.7082 24.6199 25.7943C24.6945 25.8532 24.7526 25.9336 24.8137 26.0084C24.9591 26.187 25.1287 26.3479 25.2634 26.5723C25.1723 26.62 25.1035 26.6546 25.0327 26.692C24.8573 26.5985 24.7711 26.4377 24.6528 26.3067C24.5336 26.1749 24.4251 26.0346 24.2991 25.8822L24.2981 25.8812Z" fill="#020202"/>
</svg>
